<svg width="29" height="28" viewBox="0 0 29 28" fill="none" xmlns="http://www.w3.org/2000/svg">
<path d="M12.3915 1.53138C12.3962 1.52799 12.401 1.52461 12.4058 1.52124C12.3269 1.56273 12.249 1.60672 12.1721 1.6532L4.67206 6.18689C3.32385 7.00187 2.5 8.46256 2.5 10.038V17.9661C2.5 19.5408 3.32317 21.001 4.67048 21.8162L5.7712 22.4822H9.5L15.4613 18.6651L12.6705 16.9765C11.3232 16.1613 10.5 14.7011 10.5 13.1264V10.6633L12.5 9.00005L15.5 8.00005V2.00005L12.3915 1.53138Z" fill="url(#paint0_radial_2_25894)"/>
<path d="M12.3915 1.53138C12.3962 1.52799 12.401 1.52461 12.4058 1.52124C12.3269 1.56273 12.249 1.60672 12.1721 1.6532L4.67206 6.18689C3.32385 7.00187 2.5 8.46256 2.5 10.038V17.9661C2.5 19.5408 3.32317 21.001 4.67048 21.8162L5.7712 22.4822H9.5L15.4613 18.6651L12.6705 16.9765C11.3232 16.1613 10.5 14.7011 10.5 13.1264V10.6633L12.5 9.00005L15.5 8.00005V2.00005L12.3915 1.53138Z" fill="url(#paint1_linear_2_25894)"/>
<path d="M18.5001 9.48779V13.1263C18.5001 14.701 17.6769 16.1612 16.3296 16.9764L8.82959 21.5143C7.4822 22.3295 5.81384 22.3778 4.42847 21.659C4.50714 21.7138 4.58787 21.7663 4.67056 21.8163L12.1706 26.3542C13.6027 27.2207 15.3975 27.2207 16.8296 26.3542L24.3296 21.8163C25.6769 21.0011 26.5001 19.5409 26.5001 17.9662V15.5501L25.5001 13.9999L18.5001 9.48779Z" fill="url(#paint2_radial_2_25894)"/>
<path d="M18.5001 9.48779V13.1263C18.5001 14.701 17.6769 16.1612 16.3296 16.9764L8.82959 21.5143C7.4822 22.3295 5.81384 22.3778 4.42847 21.659C4.50714 21.7138 4.58787 21.7663 4.67056 21.8163L12.1706 26.3542C13.6027 27.2207 15.3975 27.2207 16.8296 26.3542L24.3296 21.8163C25.6769 21.0011 26.5001 19.5409 26.5001 17.9662V15.5501L25.5001 13.9999L18.5001 9.48779Z" fill="url(#paint3_linear_2_25894)"/>
<path d="M24.328 6.18702L16.828 1.65333C15.4732 0.834412 13.7944 0.790564 12.405 1.52178C11.2159 2.36087 10.5 3.72972 10.5 5.19824V10.6641L12.1721 9.65331C13.6035 8.78807 15.3966 8.78807 16.828 9.65331L24.328 14.187C25.666 14.9958 26.4875 16.4406 26.4999 18.0023L26.5 17.9662V10.0381C26.5 8.46269 25.6762 7.002 24.328 6.18702Z" fill="url(#paint4_radial_2_25894)"/>
<path d="M24.328 6.18702L16.828 1.65333C15.4732 0.834412 13.7944 0.790564 12.405 1.52178C11.2159 2.36087 10.5 3.72972 10.5 5.19824V10.6641L12.1721 9.65331C13.6035 8.78807 15.3966 8.78807 16.828 9.65331L24.328 14.187C25.666 14.9958 26.4875 16.4406 26.4999 18.0023L26.5 17.9662V10.0381C26.5 8.46269 25.6762 7.002 24.328 6.18702Z" fill="url(#paint5_linear_2_25894)"/>
<defs>
<radialGradient id="paint0_radial_2_25894" cx="0" cy="0" r="1" gradientUnits="userSpaceOnUse" gradientTransform="translate(10.0101 5.07572) rotate(109.888) scale(22.0767 22.2489)">
<stop offset="0.09016" stop-color="#AE7FE2"/>
<stop offset="1" stop-color="#0078D4"/>
</radialGradient>
<linearGradient id="paint1_linear_2_25894" x1="10.7387" y1="20.6121" x2="9.65736" y2="18.7326" gradientUnits="userSpaceOnUse">
<stop offset="0.9999" stop-color="#114A8B"/>
<stop offset="1" stop-color="#0078D4" stop-opacity="0"/>
</linearGradient>
<radialGradient id="paint2_radial_2_25894" cx="0" cy="0" r="1" gradientUnits="userSpaceOnUse" gradientTransform="translate(6.35242 21.0906) rotate(-16.3913) scale(18.8905 14.267)">
<stop offset="0.11805" stop-color="#D59DFF"/>
<stop offset="1" stop-color="#5E438F"/>
</radialGradient>
<linearGradient id="paint3_linear_2_25894" x1="22.4624" y1="12.7171" x2="21.3239" y2="14.6161" gradientUnits="userSpaceOnUse">
<stop offset="0.9999" stop-color="#493474"/>
<stop offset="1" stop-color="#8C66BA" stop-opacity="0"/>
</linearGradient>
<radialGradient id="paint4_radial_2_25894" cx="0" cy="0" r="1" gradientUnits="userSpaceOnUse" gradientTransform="translate(26.5 15.282) rotate(-159.628) scale(19.5094 20.8691)">
<stop offset="0.100583" stop-color="#50E6FF"/>
<stop offset="1" stop-color="#436DCD"/>
</radialGradient>
<linearGradient id="paint5_linear_2_25894" x1="10.5" y1="7.7354" x2="12.2666" y2="7.7354" gradientUnits="userSpaceOnUse">
<stop offset="0.9999" stop-color="#2D3F80"/>
<stop offset="1" stop-color="#436DCD" stop-opacity="0"/>
</linearGradient>
</defs>
</svg>
